<svg xmlns="http://www.w3.org/2000/svg" version="1.1" xmlns:xlink="http://www.w3.org/1999/xlink" xmlns:svgjs="http://svgjs.dev/svgjs" viewBox="0 0 10.997872647358854 7.696083465602994"><g transform="matrix(1,0,0,1,0.8299696659645841,6.022348775417218)"><g><path d=" M 0.078141 0.9095099999999997 L 0.078141 -3.3306690738754696e-16 L 0.495747 -3.3306690738754696e-16 Q 0.562359 -3.3306690738754696e-16 0.618723 0.02690099999999973 Q 0.675087 0.05380199999999968 0.716079 0.09927749999999969 Q 0.757071 0.1447529999999997 0.7794885 0.20111699999999966 Q 0.801906 0.25748099999999974 0.801906 0.3151259999999997 Q 0.801906 0.3676469999999997 0.7865340000000001 0.4163249999999997 Q 0.771162 0.4650029999999997 0.741699 0.5053544999999997 Q 0.712236 0.5457059999999997 0.6712440000000001 0.5751689999999997 L 0.863394 0.9095099999999997 L 0.58926 0.9095099999999997 L 0.429135 0.6302519999999997 L 0.327936 0.6302519999999997 L 0.327936 0.9095099999999997 L 0.078141 0.9095099999999997 Z M 0.327936 0.4124819999999997 L 0.485499 0.4124819999999997 Q 0.500871 0.4124819999999997 0.514962 0.40095299999999967 Q 0.529053 0.38942399999999966 0.5386605 0.3676469999999997 Q 0.548268 0.3458699999999997 0.548268 0.3151259999999997 Q 0.548268 0.2831009999999997 0.5373795 0.2619644999999997 Q 0.526491 0.2408279999999997 0.5104785000000001 0.2292989999999997 Q 0.494466 0.21776999999999969 0.479094 0.21776999999999969 L 0.327936 0.21776999999999969 L 0.327936 0.4124819999999997 Z M 1.6037963627929688 0.6917399999999997 L 1.6037963627929688 0.9095099999999997 L 0.9556103627929687 0.9095099999999997 L 0.9556103627929687 -3.3306690738754696e-16 L 1.5922673627929687 -3.3306690738754696e-16 L 1.5922673627929687 0.21776999999999969 L 1.2054053627929688 0.21776999999999969 L 1.2054053627929688 0.3458699999999997 L 1.5359033627929688 0.3458699999999997 L 1.5359033627929688 0.5482679999999998 L 1.2054053627929688 0.5482679999999998 L 1.2054053627929688 0.6917399999999997 L 1.6037963627929688 0.6917399999999997 Z M 1.73315797265625 0.9095099999999997 L 1.73315797265625 -3.3306690738754696e-16 L 2.08287097265625 -3.3306690738754696e-16 Q 2.23402897265625 -3.3306690738754696e-16 2.33586847265625 0.06084749999999972 Q 2.4377079726562503 0.12169499999999966 2.48958847265625 0.22481549999999972 Q 2.54146897265625 0.32793599999999967 2.54146897265625 0.4534739999999997 Q 2.54146897265625 0.5918219999999996 2.48446447265625 0.6943019999999998 Q 2.42745997265625 0.7967819999999997 2.3243394726562503 0.8531459999999997 Q 2.22121897265625 0.9095099999999997 2.08287097265625 0.9095099999999997 L 1.73315797265625 0.9095099999999997 Z M 2.2878309726562502 0.4534739999999997 Q 2.2878309726562502 0.38301899999999967 2.26349197265625 0.3298574999999997 Q 2.23915297265625 0.2766959999999997 2.19303697265625 0.2472329999999997 Q 2.14692097265625 0.21776999999999969 2.08287097265625 0.21776999999999969 L 1.98295297265625 0.21776999999999969 L 1.98295297265625 0.6917399999999997 L 2.08287097265625 0.6917399999999997 Q 2.14820197265625 0.6917399999999997 2.1936774726562502 0.6609959999999997 Q 2.23915297265625 0.6302519999999997 2.26349197265625 0.5758094999999996 Q 2.2878309726562502 0.5213669999999997 2.2878309726562502 0.4534739999999997 Z M 2.6630901650390624 0.9095099999999997 L 2.6630901650390624 -3.3306690738754696e-16 L 3.0128031650390623 -3.3306690738754696e-16 Q 3.1639611650390624 -3.3306690738754696e-16 3.2658006650390625 0.06084749999999972 Q 3.367640165039062 0.12169499999999966 3.4195206650390624 0.22481549999999972 Q 3.4714011650390626 0.32793599999999967 3.4714011650390626 0.4534739999999997 Q 3.4714011650390626 0.5918219999999996 3.4143966650390625 0.6943019999999998 Q 3.3573921650390623 0.7967819999999997 3.254271665039062 0.8531459999999997 Q 3.1511511650390625 0.9095099999999997 3.0128031650390623 0.9095099999999997 L 2.6630901650390624 0.9095099999999997 Z M 3.217763165039062 0.4534739999999997 Q 3.217763165039062 0.38301899999999967 3.1934241650390622 0.3298574999999997 Q 3.1690851650390623 0.2766959999999997 3.1229691650390623 0.2472329999999997 Q 3.0768531650390623 0.21776999999999969 3.0128031650390623 0.21776999999999969 L 2.9128851650390626 0.21776999999999969 L 2.9128851650390626 0.6917399999999997 L 3.0128031650390623 0.6917399999999997 Q 3.0781341650390623 0.6917399999999997 3.123609665039062 0.6609959999999997 Q 3.1690851650390623 0.6302519999999997 3.1934241650390622 0.5758094999999996 Q 3.217763165039062 0.5213669999999997 3.217763165039062 0.4534739999999997 Z M 3.5930223574218747 0.9095099999999997 L 3.5930223574218747 -3.3306690738754696e-16 L 3.8428173574218745 -3.3306690738754696e-16 L 3.8428173574218745 0.9095099999999997 L 3.5930223574218747 0.9095099999999997 Z M 4.720245437988281 0.21776999999999969 L 4.4589214379882804 0.21776999999999969 L 4.4589214379882804 0.9095099999999997 L 4.209126437988281 0.9095099999999997 L 4.209126437988281 0.21776999999999969 L 3.946521437988281 0.21776999999999969 L 3.946521437988281 -3.3306690738754696e-16 L 4.720245437988281 -3.3306690738754696e-16 L 4.720245437988281 0.21776999999999969 Z M 5.761580220703124 0.21776999999999969 L 5.500256220703124 0.21776999999999969 L 5.500256220703124 0.9095099999999997 L 5.250461220703124 0.9095099999999997 L 5.250461220703124 0.21776999999999969 L 4.987856220703124 0.21776999999999969 L 4.987856220703124 -3.3306690738754696e-16 L 5.761580220703124 -3.3306690738754696e-16 L 5.761580220703124 0.21776999999999969 Z M 5.865293058105467 0.9095099999999997 L 5.865293058105467 -3.3306690738754696e-16 L 6.282899058105468 -3.3306690738754696e-16 Q 6.349511058105468 -3.3306690738754696e-16 6.405875058105468 0.02690099999999973 Q 6.462239058105467 0.05380199999999968 6.5032310581054675 0.09927749999999969 Q 6.544223058105468 0.1447529999999997 6.566640558105468 0.20111699999999966 Q 6.589058058105468 0.25748099999999974 6.589058058105468 0.3151259999999997 Q 6.589058058105468 0.3676469999999997 6.5736860581054675 0.4163249999999997 Q 6.558314058105468 0.4650029999999997 6.5288510581054675 0.5053544999999997 Q 6.499388058105468 0.5457059999999997 6.458396058105468 0.5751689999999997 L 6.650546058105467 0.9095099999999997 L 6.376412058105468 0.9095099999999997 L 6.2162870581054674 0.6302519999999997 L 6.115088058105468 0.6302519999999997 L 6.115088058105468 0.9095099999999997 L 5.865293058105467 0.9095099999999997 Z M 6.115088058105468 0.4124819999999997 L 6.272651058105468 0.4124819999999997 Q 6.288023058105468 0.4124819999999997 6.3021140581054675 0.40095299999999967 Q 6.316205058105468 0.38942399999999966 6.325812558105468 0.3676469999999997 Q 6.335420058105468 0.3458699999999997 6.335420058105468 0.3151259999999997 Q 6.335420058105468 0.2831009999999997 6.324531558105468 0.2619644999999997 Q 6.313643058105468 0.2408279999999997 6.2976305581054675 0.2292989999999997 Q 6.281618058105468 0.21776999999999969 6.266246058105468 0.21776999999999969 L 6.115088058105468 0.21776999999999969 L 6.115088058105468 0.4124819999999997 Z M 7.390948420898437 0.6917399999999997 L 7.390948420898437 0.9095099999999997 L 6.742762420898436 0.9095099999999997 L 6.742762420898436 -3.3306690738754696e-16 L 7.3794194208984365 -3.3306690738754696e-16 L 7.3794194208984365 0.21776999999999969 L 6.992557420898437 0.21776999999999969 L 6.992557420898437 0.3458699999999997 L 7.323055420898436 0.3458699999999997 L 7.323055420898436 0.5482679999999998 L 6.992557420898437 0.5482679999999998 L 6.992557420898437 0.6917399999999997 L 7.390948420898437 0.6917399999999997 Z M 7.770105030761718 0.4624409999999997 L 7.770105030761718 0.9095099999999997 L 7.520310030761717 0.9095099999999997 L 7.520310030761717 -3.3306690738754696e-16 L 7.715022030761718 -3.3306690738754696e-16 L 8.080107030761717 0.4624409999999997 L 8.080107030761717 -3.3306690738754696e-16 L 8.329902030761717 -3.3306690738754696e-16 L 8.329902030761717 0.9095099999999997 L 8.131347030761717 0.9095099999999997 L 7.770105030761718 0.4624409999999997 Z M 8.498952123046875 0.9095099999999997 L 8.498952123046875 -3.3306690738754696e-16 L 8.848665123046874 -3.3306690738754696e-16 Q 8.999823123046875 -3.3306690738754696e-16 9.101662623046874 0.06084749999999972 Q 9.203502123046874 0.12169499999999966 9.255382623046874 0.22481549999999972 Q 9.307263123046875 0.32793599999999967 9.307263123046875 0.4534739999999997 Q 9.307263123046875 0.5918219999999996 9.250258623046875 0.6943019999999998 Q 9.193254123046874 0.7967819999999997 9.090133623046874 0.8531459999999997 Q 8.987013123046875 0.9095099999999997 8.848665123046874 0.9095099999999997 L 8.498952123046875 0.9095099999999997 Z M 9.053625123046874 0.4534739999999997 Q 9.053625123046874 0.38301899999999967 9.029286123046875 0.3298574999999997 Q 9.004947123046875 0.2766959999999997 8.958831123046874 0.2472329999999997 Q 8.912715123046874 0.21776999999999969 8.848665123046874 0.21776999999999969 L 8.748747123046874 0.21776999999999969 L 8.748747123046874 0.6917399999999997 L 8.848665123046874 0.6917399999999997 Q 8.913996123046875 0.6917399999999997 8.959471623046875 0.6609959999999997 Q 9.004947123046875 0.6302519999999997 9.029286123046875 0.5758094999999996 Q 9.053625123046874 0.5213669999999997 9.053625123046874 0.4534739999999997 Z" fill="#000000" fill-rule="nonzero"></path></g><g></g><g clip-path="url(&quot;#SvgjsClipPath1018&quot;)"><g clip-path="url(&quot;#SvgjsClipPath1008&quot;)"><path d=" M 9.26679149232433 -0.2665878107818127 C 9.22075275921587 -0.26655256301829855 9.177775265730709 -0.28964606485181843 9.152395373824518 -0.3280573558411577 L 7.645544694695723 -2.6070133416309846 L 6.675531363301505 -1.2940856275880877 C 6.652621873971757 -1.263119909450713 6.617733831817284 -1.243230380365496 6.579416705933606 -1.2392910574379519 C 6.5410764305360685 -1.235290614048365 6.502830489444531 -1.2476744109628157 6.474111504754158 -1.2733882240450147 L 5.3729897109643385 -2.2570254781083765 C 5.355907728327478 -2.2722873532258423 5.342925652888012 -2.291589198899041 5.335231270806332 -2.3131650058894655 L 4.456401085466498 -4.777500985146341 L 3.6940591749413043 -4.0561553757425655 L 3.2390898963355874 -2.035481068342246 C 3.228013175234348 -1.9862625927650623 3.190780203785065 -1.947115821703894 3.142178227038227 -1.933588074485792 C 3.093578754840949 -1.9200584576200366 3.041476083076407 -1.9343352595066623 3.0065616659166414 -1.9707487556966998 L 2.166286932664268 -2.847187905248162 L 0.1790124064327347 -0.31916569150315066 C 0.15655934083392983 -0.2905954947095877 0.12367482546965516 -0.2721168290403124 0.08759536609284757 -0.26779607555461116 C 0.05151590671602656 -0.263475322068909 0.015197983632387918 -0.2736665388044379 -0.013366348039834108 -0.2961270654172994 C -0.041929257282738795 -0.3185795963869795 -0.06040302781114115 -0.35145913754884006 -0.06472361218677979 -0.38753251390890764 C -0.06904419656241842 -0.4236058902689823 -0.05885767222341507 -0.45991813539980964 -0.036404974125692574 -0.4884809132670789 L 2.048279353859114 -3.140612828402151 C 2.072797413858456 -3.1717973484357613 2.1096297684919723 -3.190822249916414 2.149250802672145 -3.192767296535965 C 2.1888984599298142 -3.1948516352310157 2.2274764992206766 -3.1795023068622155 2.2548548833251343 -3.150749823879932 L 3.0277572019156267 -2.3445971638574243 L 3.435877123042975 -4.157176637801196 C 3.4418503040557447 -4.183721989980953 3.4555933508648873 -4.207887208565862 3.475354120173872 -4.2265913955323064 L 4.420635175132137 -5.121062939987717 C 4.454284843716263 -5.152845872922057 4.5016928505928995 -5.165517353227097 4.546712499723046 -5.154761600630053 C 4.591742606810348 -5.14398705322879 4.628282623562456 -5.1111947305025405 4.643848328625567 -5.0675884208457465 L 5.581507957008403 -2.4382460655685696 L 6.544472714151489 -1.5780211274569922 L 7.541534637901637 -2.9275615770093055 C 7.568148899098214 -2.9635015193481022 7.6106008342128 -2.984225647041955 7.65530809083156 -2.98310334584331 C 7.70001267386148 -2.981932071389511 7.741331196478263 -2.9590134939254344 7.765993122534842 -2.9217085206523548 L 9.380938544596177 -0.47938999594672893 C 9.42265757080953 -0.41627924149394246 9.405317891097003 -0.33129808452341525 9.342208746149158 -0.2895766236220858 C 9.319882327581748 -0.27465346579093186 9.293646006783067 -0.26665606681563236 9.26679149232433 -0.2665878107818127 Z" fill="#4caf7a" transform="matrix(1,0,0,1,0,0)" fill-rule="nonzero"></path></g><g clip-path="url(&quot;#SvgjsClipPath1008&quot;)"><path d=" M 9.26656733271917 -0.25007471986838503 C 9.245849555004671 -0.2500967272140153 9.225408341949478 -0.2548322749051355 9.20679143800993 -0.26392280214269537 L 7.856105283809025 -0.9212832975847807 C 7.833776855226736 -0.9322082481804799 7.814837103102355 -0.9489957557452771 7.801310713658883 -0.9698512120360476 L 6.172666649060007 -3.477674154693892 L 4.478642699622888 -3.8605138536837877 L 0.15858897574040787 -0.2979950621269687 C 0.10022262193165687 -0.24986951203231378 0.01389507313352746 -0.2581655203384079 -0.03423809794248777 -0.3165255894868233 C -0.0823636480371358 -0.37489194329558106 -0.07406763973104144 -0.4612194920937105 -0.015707570582626527 -0.5093526631697252 L 4.356151928714533 -4.114611219443651 C 4.3888373545302155 -4.141570601045473 4.432158295216323 -4.151888175965841 4.473487028704221 -4.14255645022022 L 6.28738655365615 -3.7326183456288025 C 6.32222718039197 -3.724743215619 6.352613832950788 -3.70357086858611 6.372069071160913 -3.6736145562262252 L 8.01032709215886 -1.1509721730050417 L 9.326791546638727 -0.510249301590366 C 9.394809362067207 -0.4771367122725412 9.423109665824505 -0.3951572665579368 9.39000455529375 -0.3271358107977145 C 9.367031483909283 -0.2799116663438044 9.319082781817066 -0.2499775896139198 9.26656733271917 -0.25007471986838503 Z" fill="#ff0000" transform="matrix(1,0,0,1,0,0)" fill-rule="nonzero"></path></g><g clip-path="url(&quot;#SvgjsClipPath1008&quot;)"><path d=" M 7.8934652180023 -2.84502102906495 C 7.8934652180023 -2.711922335109305 7.78556742978852 -2.6040245468955248 7.6524687358328745 -2.6040245468955248 C 7.519370041877232 -2.6040245468955248 7.41147225366345 -2.711922335109305 7.41147225366345 -2.84502102906495 C 7.41147225366345 -2.9781197230205954 7.519370041877232 -3.086017511234376 7.6524687358328745 -3.086017511234376 C 7.78556742978852 -3.086017511234376 7.8934652180023 -2.9781197230205954 7.8934652180023 -2.84502102906495 Z" fill="#4caf7a" transform="matrix(1,0,0,1,0,0)" fill-rule="nonzero"></path></g><g clip-path="url(&quot;#SvgjsClipPath1008&quot;)"><path d=" M 6.808756888634725 -1.3742351397440609 C 6.808756888634725 -1.241136445788416 6.700859100420943 -1.133238657574636 6.567760406465299 -1.133238657574636 C 6.434661712509654 -1.133238657574636 6.326763924295873 -1.241136445788416 6.326763924295873 -1.3742351397440609 C 6.326763924295873 -1.5073338336997057 6.434661712509654 -1.6152316219134861 6.567760406465299 -1.6152316219134861 C 6.700859100420943 -1.6152316219134861 6.808756888634725 -1.5073338336997057 6.808756888634725 -1.3742351397440609 Z" fill="#4caf7a" transform="matrix(1,0,0,1,0,0)" fill-rule="nonzero"></path></g><g clip-path="url(&quot;#SvgjsClipPath1008&quot;)"><path d=" M 8.156977287178872 -1.045691878448391 C 8.156977287178872 -0.9125931844927466 8.049079498965092 -0.8046953962789658 7.915980805009448 -0.8046953962789658 C 7.782882111053804 -0.8046953962789658 7.6749843228400225 -0.9125931844927466 7.6749843228400225 -1.045691878448391 C 7.6749843228400225 -1.1787905724040355 7.782882111053804 -1.2866883606178177 7.915980805009448 -1.2866883606178177 C 8.049079498965092 -1.2866883606178177 8.156977287178872 -1.1787905724040355 8.156977287178872 -1.045691878448391 Z" fill="#ff0000" transform="matrix(1,0,0,1,0,0)" fill-rule="nonzero"></path></g><g clip-path="url(&quot;#SvgjsClipPath1008&quot;)"><path d=" M 6.499242287154831 -3.5965783719196858 C 6.499242287154831 -3.463479677964041 6.39134449894105 -3.35558188975026 6.258245804985405 -3.35558188975026 C 6.125147111029761 -3.35558188975026 6.01724932281598 -3.463479677964041 6.01724932281598 -3.5965783719196858 C 6.01724932281598 -3.7296770658753307 6.125147111029761 -3.8375748540891115 6.258245804985405 -3.8375748540891115 C 6.39134449894105 -3.8375748540891115 6.499242287154831 -3.7296770658753307 6.499242287154831 -3.5965783719196858 Z" fill="#ff0000" transform="matrix(1,0,0,1,0,0)" fill-rule="nonzero"></path></g><g clip-path="url(&quot;#SvgjsClipPath1008&quot;)"><path d=" M 5.630524190669982 -2.357897300430222 C 5.630524190669982 -2.2660652540424704 5.55607962327486 -2.191620686647348 5.464247576887108 -2.191620686647348 C 5.3724155304993575 -2.191620686647348 5.297970963104236 -2.2660652540424704 5.297970963104236 -2.357897300430222 C 5.297970963104236 -2.4497293468179735 5.3724155304993575 -2.5241739142130957 5.464247576887108 -2.5241739142130957 C 5.55607962327486 -2.5241739142130957 5.630524190669982 -2.4497293468179735 5.630524190669982 -2.357897300430222 Z" fill="#4caf7a" transform="matrix(1,0,0,1,0,0)" fill-rule="nonzero"></path></g><g clip-path="url(&quot;#SvgjsClipPath1008&quot;)"><path d=" M 4.75615229081055 -5.017127603062017 C 4.75615229081055 -4.884028909106371 4.64825450259677 -4.7761311208925905 4.515155808641125 -4.7761311208925905 C 4.38205711468548 -4.7761311208925905 4.2741593264717 -4.884028909106371 4.2741593264717 -5.017127603062017 C 4.2741593264717 -5.150226297017661 4.38205711468548 -5.258124085231442 4.515155808641125 -5.258124085231442 C 4.64825450259677 -5.258124085231442 4.75615229081055 -5.150226297017661 4.75615229081055 -5.017127603062017 Z" fill="#4caf7a" transform="matrix(1,0,0,1,0,0)" fill-rule="nonzero"></path></g><g clip-path="url(&quot;#SvgjsClipPath1008&quot;)"><path d=" M 4.684446123782256 -4.0082848467295875 C 4.684446123782256 -3.875186152773942 4.576548335568476 -3.7672883645601614 4.4434496416128315 -3.7672883645601614 C 4.310350947657186 -3.7672883645601614 4.202453159443405 -3.875186152773942 4.202453159443405 -4.0082848467295875 C 4.202453159443405 -4.141383540685232 4.310350947657186 -4.249281328899013 4.4434496416128315 -4.249281328899013 C 4.576548335568476 -4.249281328899013 4.684446123782256 -4.141383540685232 4.684446123782256 -4.0082848467295875 Z" fill="#ff0000" transform="matrix(1,0,0,1,0,0)" fill-rule="nonzero"></path></g><g clip-path="url(&quot;#SvgjsClipPath1008&quot;)"><path d=" M 3.7353543555362725 -4.126765651367863 C 3.7353543555362725 -4.034933604980111 3.6609097881411508 -3.9604890375849893 3.569077741753399 -3.9604890375849893 C 3.477245695365648 -3.9604890375849893 3.4028011279705255 -4.034933604980111 3.4028011279705255 -4.126765651367863 C 3.4028011279705255 -4.218597697755614 3.477245695365648 -4.293042265150737 3.569077741753399 -4.293042265150737 C 3.6609097881411508 -4.293042265150737 3.7353543555362725 -4.218597697755614 3.7353543555362725 -4.126765651367863 Z" fill="#4caf7a" transform="matrix(1,0,0,1,0,0)" fill-rule="nonzero"></path></g><g clip-path="url(&quot;#SvgjsClipPath1008&quot;)"><path d=" M 3.347956744574797 -2.064298030916664 C 3.347956744574797 -1.931199336961019 3.2400589563610156 -1.8233015487472386 3.106960262405371 -1.8233015487472386 C 2.973861568449726 -1.8233015487472386 2.865963780235945 -1.931199336961019 2.865963780235945 -2.064298030916664 C 2.865963780235945 -2.1973967248723087 2.973861568449726 -2.3052945130860896 3.106960262405371 -2.3052945130860896 C 3.2400589563610156 -2.3052945130860896 3.347956744574797 -2.1973967248723087 3.347956744574797 -2.064298030916664 Z" fill="#4caf7a" transform="matrix(1,0,0,1,0,0)" fill-rule="nonzero"></path></g><g clip-path="url(&quot;#SvgjsClipPath1008&quot;)"><path d=" M 2.321953325136256 -3.0534147419950433 C 2.321953325136256 -2.9615826956072917 2.2475087577411337 -2.8871381282121695 2.155676711353382 -2.8871381282121695 C 2.0638446649656306 -2.8871381282121695 1.9894000975705084 -2.9615826956072917 1.9894000975705084 -3.0534147419950433 C 1.9894000975705084 -3.1452467883827953 2.0638446649656306 -3.219691355777917 2.155676711353382 -3.219691355777917 C 2.2475087577411337 -3.219691355777917 2.321953325136256 -3.1452467883827953 2.321953325136256 -3.0534147419950433 Z" fill="#4caf7a" transform="matrix(1,0,0,1,0,0)" fill-rule="nonzero"></path></g><g clip-path="url(&quot;#SvgjsClipPath1008&quot;)"><path d=" M 6.565195024317364 -1.2384691388856943 C 6.53592853304823 -1.2384345803758992 6.507429996740255 -1.2478321976199709 6.483924714135594 -1.2652686650136742 C 6.454700523661491 -1.2868553218015029 6.435248925818318 -1.3191674457619968 6.429849324139454 -1.355096283230691 C 6.424449722460597 -1.3910251206993913 6.433544455684037 -1.4276273588971464 6.455132658183977 -1.456850407556788 L 7.541534637901644 -2.9273125107813356 C 7.563125457844186 -2.956540002625596 7.5954442587115345 -2.9759915604980196 7.631378957529383 -2.981386669965661 C 7.667313656347232 -2.9867817794333154 7.703919604032837 -2.977678341225349 7.733141287067561 -2.9560796601101633 C 7.762361591330714 -2.9344892687109976 7.78180825287835 -2.9021753495421416 7.787203152033002 -2.8662467224446453 C 7.79259805118766 -2.830318095347149 7.783499257162639 -2.7937179045731866 7.761908436396381 -2.7644979175670428 L 6.675481550055919 -1.2940358143424948 C 6.649656215211382 -1.2590190283104294 6.608704981149237 -1.238386191094385 6.565195024317364 -1.2384691388856943 Z" fill="#4caf7a" transform="matrix(1,0,0,1,0,0)" fill-rule="nonzero"></path></g><g clip-path="url(&quot;#SvgjsClipPath1008&quot;)"><path d=" M 3.105515678283232 -1.928457310189907 C 3.095352158128826 -1.9284648423796567 3.085220422207127 -1.9295924469546226 3.0753039448322723 -1.931819704267308 C 3.0398570396189664 -1.9397975695487526 3.0090315691346494 -1.961530837433921 2.9896096590207466 -1.9922378208607756 C 2.9701877489068305 -2.0229448042876235 2.963760568821031 -2.0601097867266485 2.9717422072485125 -2.0955558425250373 L 3.435902029665771 -4.156952478196029 C 3.4418752106785475 -4.183497830375792 3.4556182574876906 -4.207663048960702 3.475379026796668 -4.226367235927147 L 4.42066008175494 -5.120838780382551 C 4.4756142567931 -5.172832760315231 4.562312232877452 -5.170435324320623 4.614309073990087 -5.11548385648152 C 4.6392852123203525 -5.08909272390652 4.652752878233921 -5.053859748106032 4.651748603643712 -5.017537705252798 C 4.65074432905351 -4.981215662399571 4.635350401598765 -4.946780685901313 4.608954150089056 -4.921809957623583 L 3.6940093616957252 -4.056055749251394 L 3.2390400830900083 -2.0353814418510674 C 3.224989139065841 -1.9729154464794578 3.1695424407970867 -1.9285146489290486 3.105515678283232 -1.928457310189907 Z" fill="#4caf7a" transform="matrix(1,0,0,1,0,0)" fill-rule="nonzero"></path></g><g clip-path="url(&quot;#SvgjsClipPath1008&quot;)"><path d=" M 0.07114182310535516 -0.2666127174046089 C 0.040464496596830254 -0.2665923064503515 0.010675450736196246 -0.27691098625361654 -0.013416161285426727 -0.29590290581213274 C -0.041979070528331414 -0.3183554367818129 -0.060452841056733764 -0.3512349779436734 -0.0647734254323724 -0.3873083543037472 C -0.06909400980801104 -0.4233817306638219 -0.05890748546900769 -0.4596939757946421 -0.036454787371285186 -0.48825675366191224 L 2.0482295406135216 -3.1403886687969838 C 2.0706820715832013 -3.168951578039882 2.1035616127450623 -3.187425348568284 2.13963498910513 -3.191745932943923 C 2.175708365465204 -3.1960665173195615 2.2120206105960314 -3.185879992980558 2.2405833884633006 -3.1634272948828355 C 2.269153585256864 -3.140974229284024 2.287632250926146 -3.108089713919749 2.2919530044118477 -3.072010254542942 C 2.2962737578975494 -3.035930795166121 2.28608254116202 -2.999612872082482 2.2636220145491524 -2.9710485404102602 L 0.17893768656435252 -0.318941531897984 C 0.15295899153287104 -0.28585700005718007 0.1132069633588702 -0.26655963148196005 0.07114182310535516 -0.2666127174046089 Z" fill="#4caf7a" transform="matrix(1,0,0,1,0,0)" fill-rule="nonzero"></path></g></g></g><defs><clipPath id="SvgjsClipPath1018"><path d=" M -0.06574497577880845 -5.258124085231442 h 9.469423266987302 v 5.008124085231442 h -9.469423266987302 Z"></path></clipPath><clipPath id="SvgjsClipPath1008"><path d=" M -0.06574497577880845 -5.258124085231442 L 9.403678291208493 -5.258124085231442 L 9.403678291208493 -0.25 L -0.06574497577880845 -0.25 Z"></path></clipPath></defs></svg>